<svg viewBox="0 0 20 18" fill="none" xmlns="http://www.w3.org/2000/svg">
<path d="M2.66187 12.9375V15.75H5.68184L14.5888 7.455L11.5688 4.6425L2.66187 12.9375ZM16.9242 5.28C16.9989 5.21062 17.0581 5.1282 17.0985 5.03747C17.1389 4.94674 17.1597 4.84948 17.1597 4.75125C17.1597 4.65303 17.1389 4.55576 17.0985 4.46503C17.0581 4.3743 16.9989 4.29189 16.9242 4.2225L15.0398 2.4675C14.9653 2.39797 14.8768 2.34281 14.7793 2.30518C14.6819 2.26754 14.5775 2.24817 14.472 2.24817C14.3665 2.24817 14.2621 2.26754 14.1647 2.30518C14.0672 2.34281 13.9787 2.39797 13.9042 2.4675L12.4305 3.84L15.4505 6.6525L16.9242 5.28Z" fill="#343A40"/>
</svg>
