<svg xmlns="http://www.w3.org/2000/svg" width="28" height="28" fill="none" viewBox="0 0 28 28"><g clip-path="url(#clip0_11_186)"><path fill="#343A40" d="M28 14C28 17.713 26.525 21.274 23.8995 23.8995C21.274 26.525 17.713 28 14 28C10.287 28 6.72601 26.525 4.10051 23.8995C1.475 21.274 0 17.713 0 14C0 10.287 1.475 6.72601 4.10051 4.10051C6.72601 1.475 10.287 0 14 0C17.713 0 21.274 1.475 23.8995 4.10051C26.525 6.72601 28 10.287 28 14ZM20.125 24.612L17.8832 16.394C17.8326 16.2088 17.7223 16.0454 17.5696 15.929C17.4168 15.8126 17.23 15.7497 17.038 15.75H10.962C10.77 15.7497 10.5832 15.8126 10.4304 15.929C10.2777 16.0454 10.1674 16.2088 10.1168 16.394L7.87675 24.612C9.73776 25.6882 11.8502 26.2533 14 26.25C16.2313 26.25 18.3225 25.655 20.125 24.612ZM21.6528 23.5655C23.6348 21.9797 25.0754 19.8174 25.7752 17.3774C26.4751 14.9375 26.3996 12.3403 25.5594 9.94507C24.7192 7.54981 23.1556 5.47472 21.0848 4.00665C19.014 2.53858 16.5384 1.75005 14 1.75005C11.4616 1.75005 8.98596 2.53858 6.91519 4.00665C4.84443 5.47472 3.28085 7.54981 2.4406 9.94507C1.60036 12.3403 1.52494 14.9375 2.22478 17.3774C2.92463 19.8174 4.36516 21.9797 6.34725 23.5655L8.42975 15.9355C8.57017 15.4192 8.86498 14.9582 9.2747 14.6142C9.68443 14.2701 10.1895 14.0595 10.7222 14.0105L12.7435 7.27125C13.1163 6.0235 14.8838 6.0235 15.2565 7.27125L17.2795 14.0105C17.8123 14.0595 18.3173 14.2701 18.727 14.6142C19.1368 14.9582 19.4316 15.4192 19.572 15.9355L21.6528 23.5655Z"/></g><defs><clipPath id="clip0_11_186"><rect width="28" height="28" fill="#fff"/></clipPath></defs></svg>