<svg viewBox="0 0 18 18" fill="none" xmlns="http://www.w3.org/2000/svg">
<path d="M6.75 5.625H13.6041L11.5864 3.60787L12.375 2.8125L15.75 6.1875L12.375 9.5625L11.5864 8.76656L13.6024 6.75H6.75C5.85489 6.75 4.99645 7.10558 4.36351 7.73851C3.73058 8.37145 3.375 9.22989 3.375 10.125C3.375 11.0201 3.73058 11.8786 4.36351 12.5115C4.99645 13.1444 5.85489 13.5 6.75 13.5H11.25V14.625H6.75C5.55653 14.625 4.41193 14.1509 3.56802 13.307C2.72411 12.4631 2.25 11.3185 2.25 10.125C2.25 8.93153 2.72411 7.78693 3.56802 6.94302C4.41193 6.09911 5.55653 5.625 6.75 5.625Z" fill="#343A40"/>
</svg>
