<svg viewBox="0 0 28 28" fill="none" xmlns="http://www.w3.org/2000/svg">
<path d="M10.2084 4.08333C8.65863 4.08158 7.16586 4.66735 6.03089 5.72256C4.89592 6.77778 4.20314 8.22399 4.09217 9.76973C3.9812 11.3155 4.46029 12.8458 5.43289 14.0523C6.40549 15.2589 7.79928 16.0519 9.33335 16.2715V18.0355C7.85935 17.8708 6.4618 17.2932 5.30157 16.3692C4.14134 15.4453 3.26558 14.2125 2.77508 12.8128C2.28458 11.413 2.19927 9.90326 2.52898 8.45719C2.85869 7.01112 3.59002 5.68753 4.63879 4.63876C5.68755 3.58999 7.01114 2.85867 8.45721 2.52896C9.90328 2.19925 11.4131 2.28456 12.8128 2.77506C14.2125 3.26556 15.4453 4.14132 16.3693 5.30155C17.2932 6.46178 17.8708 7.85932 18.0355 9.33333H16.2715C16.0609 7.87552 15.332 6.54241 14.2185 5.57823C13.1049 4.61404 11.6813 4.08334 10.2084 4.08333ZM14.2917 10.5C13.7938 10.5 13.3007 10.5981 12.8407 10.7886C12.3807 10.9792 11.9627 11.2585 11.6106 11.6105C11.2585 11.9626 10.9792 12.3806 10.7886 12.8407C10.5981 13.3007 10.5 13.7937 10.5 14.2917V21.875C10.5 22.3729 10.5981 22.866 10.7886 23.326C10.9792 23.786 11.2585 24.204 11.6106 24.5561C11.9627 24.9082 12.3807 25.1875 12.8407 25.378C13.3007 25.5686 13.7938 25.6667 14.2917 25.6667H21.875C22.3729 25.6667 22.866 25.5686 23.326 25.378C23.7861 25.1875 24.204 24.9082 24.5561 24.5561C24.9082 24.204 25.1875 23.786 25.3781 23.326C25.5686 22.866 25.6667 22.3729 25.6667 21.875V14.2917C25.6667 13.7937 25.5686 13.3007 25.3781 12.8407C25.1875 12.3806 24.9082 11.9626 24.5561 11.6105C24.204 11.2585 23.7861 10.9792 23.326 10.7886C22.866 10.5981 22.3729 10.5 21.875 10.5H14.2917ZM12.25 14.2917C12.25 13.1647 13.1647 12.25 14.2917 12.25H21.875C23.002 12.25 23.9167 13.1647 23.9167 14.2917V21.875C23.9167 22.4165 23.7016 22.9358 23.3187 23.3187C22.9358 23.7016 22.4165 23.9167 21.875 23.9167H14.2917C13.7502 23.9167 13.2309 23.7016 12.848 23.3187C12.4651 22.9358 12.25 22.4165 12.25 21.875V14.2917Z" fill="#343A40"/>
</svg>
