<svg xmlns="http://www.w3.org/2000/svg" width="28" height="28" viewBox="0 0 28 28" fill="none">
  <path d="M5.25 4.375C5.25 4.14294 5.34219 3.92038 5.50628 3.75628C5.67038 3.59219 5.89294 3.5 6.125 3.5H20.125C20.3571 3.5 20.5796 3.59219 20.7437 3.75628C20.9078 3.92038 21 4.14294 21 4.375V7.875C21 8.10706 20.9078 8.32962 20.7437 8.49372C20.5796 8.65781 20.3571 8.75 20.125 8.75C19.8929 8.75 19.6704 8.65781 19.5063 8.49372C19.3422 8.32962 19.25 8.10706 19.25 7.875V5.25H14V22.75H15.75C15.9821 22.75 16.2046 22.8422 16.3687 23.0063C16.5328 23.1704 16.625 23.3929 16.625 23.625C16.625 23.8571 16.5328 24.0796 16.3687 24.2437C16.2046 24.4078 15.9821 24.5 15.75 24.5H10.5C10.2679 24.5 10.0454 24.4078 9.88128 24.2437C9.71719 24.0796 9.625 23.8571 9.625 23.625C9.625 23.3929 9.71719 23.1704 9.88128 23.0063C10.0454 22.8422 10.2679 22.75 10.5 22.75H12.25V5.25H7V7.875C7 8.10706 6.90781 8.32962 6.74372 8.49372C6.57962 8.65781 6.35706 8.75 6.125 8.75C5.89294 8.75 5.67038 8.65781 5.50628 8.49372C5.34219 8.32962 5.25 8.10706 5.25 7.875V4.375Z" fill="#343A40"/>
</svg>