<svg viewBox="0 0 18 17" fill="none" xmlns="http://www.w3.org/2000/svg">
<path d="M11.25 5.3125H4.39594L6.41363 3.40744L5.625 2.65625L2.25 5.84375L5.625 9.03125L6.41363 8.27953L4.39762 6.375H11.25C12.1451 6.375 13.0036 6.71082 13.6365 7.3086C14.2694 7.90637 14.625 8.71712 14.625 9.5625C14.625 10.4079 14.2694 11.2186 13.6365 11.8164C13.0036 12.4142 12.1451 12.75 11.25 12.75H6.75V13.8125H11.25C12.4435 13.8125 13.5881 13.3647 14.432 12.5677C15.2759 11.7707 15.75 10.6897 15.75 9.5625C15.75 8.43533 15.2759 7.35433 14.432 6.5573C13.5881 5.76027 12.4435 5.3125 11.25 5.3125Z" fill="#343A40"/>
</svg>
